<?xml version="1.0" encoding="UTF-8"?>
<svg width="19px" height="23px" viewBox="0 0 19 23" version="1.1" xmlns="http://www.w3.org/2000/svg" xmlns:xlink="http://www.w3.org/1999/xlink">
    <!-- Generator: Sketch 50.2 (55047) - http://www.bohemiancoding.com/sketch -->
    <title>Fill 1</title>
    <desc>Created with Sketch.</desc>
    <defs></defs>
    <g id="官网" stroke="none" stroke-width="1" fill="none" fill-rule="evenodd">
        <g id="web-320" transform="translate(-99.000000, -1382.000000)" fill="#FFFFFF">
            <g id="download" transform="translate(57.000000, 1316.000000)">
                <g id="android" transform="translate(0.000000, 57.000000)">
                    <g id="Group-2" transform="translate(42.000000, 3.000000)">
                        <path d="M6.55008621,9.93135143 C6.91239655,9.93102384 7.20525862,10.2268342 7.20591379,10.5868514 C7.20591379,10.9478514 6.91206897,11.2413687 6.54943103,11.2413687 C6.18974138,11.2407135 5.89655172,10.948179 5.89655172,10.5868514 C5.89655172,10.2268342 6.18908621,9.93102384 6.55008621,9.93135143 L6.55008621,9.93135143 Z M12.4476207,9.93135143 C12.809931,9.93102384 13.1027931,10.2268342 13.1034483,10.5868514 C13.1034483,10.9478514 12.809931,11.2413687 12.4469655,11.2413687 C12.0872759,11.2407135 11.7940862,10.948179 11.7940862,10.5868514 C11.7944138,10.2268342 12.0866207,9.93102384 12.4476207,9.93135143 L12.4476207,9.93135143 Z M3.27586207,13.5344721 L15.7241379,13.5344721 C15.7241379,11.4218687 14.6689828,9.55823074 13.0598793,8.4332997 L14.2041379,6.49431695 C14.2961897,6.33838591 14.244431,6.13757557 14.0888276,6.04552384 C13.9328966,5.95412729 13.7320862,6.00555833 13.6400345,6.16083419 L12.5042931,8.08442039 C11.6132586,7.59205833 10.5898793,7.31033419 9.5,7.31033419 C8.46155172,7.31033419 7.48468966,7.56814453 6.6237931,8.01792039 L5.52736207,6.16083419 C5.43563793,6.00555833 5.2345,5.95347212 5.07889655,6.04552384 C4.92296552,6.13757557 4.8712069,6.33838591 4.96325862,6.49431695 L6.0587069,8.35009281 C4.3817931,9.46519626 3.27586207,11.37011 3.27586207,13.5344721 L3.27586207,13.5344721 Z M1.31034483,14.1896445 C0.589655172,14.1896445 0,14.7796273 0,15.4999894 L0,21.3968687 C0,22.1172307 0.589655172,22.7068859 1.31034483,22.7068859 C2.03103448,22.7068859 2.62068966,22.1172307 2.62068966,21.3968687 L2.62068966,15.4999894 C2.62068966,14.7796273 2.03103448,14.1896445 1.31034483,14.1896445 L1.31034483,14.1896445 Z M3.27422414,23.3620583 C3.27422414,24.0860238 3.86093103,24.6724032 4.58456897,24.6724032 L5.89491379,24.6724032 L5.89491379,27.6210066 C5.89491379,28.3413687 6.48456897,28.9310238 7.20525862,28.9310238 C7.92594828,28.9310238 8.51560345,28.3413687 8.51560345,27.6210066 L8.51560345,24.6724032 L10.4843966,24.6724032 L10.4843966,27.6210066 C10.4843966,28.3413687 11.0740517,28.9310238 11.7947414,28.9310238 C12.515431,28.9310238 13.1050862,28.3413687 13.1050862,27.6210066 L13.1050862,24.6724032 L14.415431,24.6724032 C15.139069,24.6724032 15.7257759,24.0860238 15.7257759,23.3620583 L15.7257759,14.1896445 L3.27422414,14.1896445 L3.27422414,23.3620583 Z M17.6896552,14.1896445 C16.9689655,14.1896445 16.3793103,14.7796273 16.3793103,15.4999894 L16.3793103,21.3968687 C16.3793103,22.1172307 16.9689655,22.7068859 17.6896552,22.7068859 C18.4103448,22.7068859 19,22.1172307 19,21.3968687 L19,15.4999894 C19,14.7796273 18.4103448,14.1896445 17.6896552,14.1896445 L17.6896552,14.1896445 Z" id="Fill-1"></path>
                    </g>
                </g>
            </g>
        </g>
    </g>
</svg>