<?xml version="1.0" encoding="UTF-8"?>
<svg width="19px" height="23px" viewBox="0 0 19 23" version="1.1" xmlns="http://www.w3.org/2000/svg" xmlns:xlink="http://www.w3.org/1999/xlink">
    <!-- Generator: Sketch 50.2 (55047) - http://www.bohemiancoding.com/sketch -->
    <title>Fill 1</title>
    <desc>Created with Sketch.</desc>
    <defs></defs>
    <g id="官网" stroke="none" stroke-width="1" fill="none" fill-rule="evenodd">
        <g id="web-320" transform="translate(-99.000000, -1324.000000)" fill="#FFFFFF">
            <g id="download" transform="translate(57.000000, 1316.000000)">
                <g id="iphone">
                    <g id="Group-2" transform="translate(42.000000, 3.000000)">
                        <path d="M15.8697009,17.1255154 C15.8431004,14.2450702 18.2855888,12.8437982 18.3967405,12.7782471 C17.0144688,10.8098162 14.8702852,10.540012 14.1169233,10.5191117 C12.315695,10.3338587 10.5695676,11.5707782 9.65185322,11.5707782 C8.71703854,11.5707782 7.30436636,10.5371619 5.78149245,10.5675624 C3.8225617,10.5970129 1.98998292,11.7037803 0.98486714,13.4242573 C-1.08901542,16.9298123 0.457608861,22.0817432 2.44504007,24.9165877 C3.43970568,26.3045595 4.60062391,27.8530838 6.12159779,27.799883 C7.60932115,27.739082 8.16507988,26.8736184 9.95965806,26.8736184 C11.738086,26.8736184 12.2605942,27.799883 13.8110185,27.7647324 C15.4070436,27.739082 16.4121594,26.3701105 17.3716744,24.9697886 C18.5211925,23.3794636 18.9819497,21.811939 19,21.7321377 C18.9629494,21.7188375 15.9001013,20.5778696 15.8697009,17.1255154 M12.9403299,8.65470738 C13.7402424,7.67809205 14.287451,6.34902118 14.1354486,5 C12.9783305,5.05035079 11.5295577,5.78281229 10.6954446,6.73757728 C9.95823303,7.5792905 9.29892268,8.95966217 9.46897535,10.2573825 C10.7695458,10.352384 12.1052667,9.61612248 12.9403299,8.65470738" id="Fill-1"></path>
                    </g>
                </g>
            </g>
        </g>
    </g>
</svg>